<?xml version="1.0" standalone="no"?>
<!DOCTYPE svg PUBLIC "-//W3C//DTD SVG 20010904//EN"
 "http://www.w3.org/TR/2001/REC-SVG-20010904/DTD/svg10.dtd">
<svg version="1.0" xmlns="http://www.w3.org/2000/svg"
 width="150.000000pt" height="150.000000pt" viewBox="0 0 150.000000 150.000000"
 preserveAspectRatio="xMidYMid meet">

<g transform="translate(0.000000,150.000000) scale(0.100000,-0.100000)"
fill="#000000" stroke="none">
<path d="M630 1129 c-74 -22 -152 -44 -173 -50 l-39 -10 4 -199 3 -199 -45 -3
-45 -3 0 -100 0 -100 115 -8 c109 -8 117 -11 161 -43 62 -45 147 -84 185 -84
87 0 261 137 316 250 47 94 58 159 58 331 l0 156 -180 52 c-98 28 -189 51
-202 50 -13 0 -84 -18 -158 -40z m279 -10 c58 -17 136 -39 174 -50 l67 -20 0
-133 c0 -145 -8 -203 -39 -287 -41 -109 -169 -232 -278 -268 -37 -12 -47 -12
-86 3 -24 9 -66 31 -93 48 l-49 32 37 6 c20 4 43 12 51 18 15 13 37 105 37
153 0 19 9 34 30 49 l30 21 59 -35 c55 -34 81 -43 81 -31 0 3 -7 36 -17 72
l-16 66 57 51 c32 28 54 54 50 59 -4 4 -30 7 -58 7 -81 0 -89 5 -116 72 -14
34 -30 63 -36 65 -6 2 -21 -23 -33 -54 -13 -32 -31 -64 -39 -70 -9 -7 -42 -13
-73 -13 -32 0 -61 -5 -65 -11 -3 -6 11 -25 32 -42 80 -67 75 -58 63 -104 -11
-40 -14 -43 -45 -43 -34 0 -34 0 -34 49 0 56 -28 101 -64 101 -33 0 -46 -19
-46 -71 0 -45 -21 -81 -38 -65 -4 4 -8 86 -10 181 l-4 174 69 20 c37 11 113
33 168 50 55 16 106 30 114 30 7 1 61 -13 120 -30z m-6 -257 c31 -2 57 -7 57
-12 0 -6 -3 -10 -7 -10 -5 0 -24 -16 -45 -35 l-36 -35 13 -55 c7 -30 10 -55 6
-55 -3 0 -24 11 -46 25 -49 30 -59 30 -96 4 -45 -32 -59 -21 -46 37 l11 47
-42 36 c-23 20 -42 40 -42 44 0 4 25 7 55 7 l55 0 26 58 26 57 26 -55 27 -55
58 -3z m-336 -82 c7 -14 13 -46 13 -72 l0 -48 53 0 c79 0 82 -5 68 -92 -7 -40
-16 -77 -20 -81 -4 -4 -57 -6 -117 -5 l-109 3 -3 79 c-3 77 -2 80 29 112 26
26 31 40 31 75 -1 24 2 47 5 51 9 16 37 3 50 -22z m-139 -217 l3 -83 -41 0
-40 0 0 78 c0 43 3 82 7 86 4 4 21 6 38 4 l30 -3 3 -82z"/>
<path d="M1070 673 c-27 -83 -123 -198 -198 -237 -29 -15 -43 -36 -24 -36 19
0 105 63 148 107 44 46 104 154 104 187 0 29 -18 16 -30 -21z"/>
<path d="M785 390 c4 -6 11 -8 16 -5 14 9 11 15 -7 15 -8 0 -12 -5 -9 -10z"/>
</g>
</svg>
