<?xml version="1.0" standalone="no"?>
<!DOCTYPE svg PUBLIC "-//W3C//DTD SVG 20010904//EN"
 "http://www.w3.org/TR/2001/REC-SVG-20010904/DTD/svg10.dtd">
<svg version="1.0" xmlns="http://www.w3.org/2000/svg"
 width="500.000000pt" height="500.000000pt" viewBox="0 0 500.000000 500.000000"
 preserveAspectRatio="xMidYMid meet">

<g transform="translate(0.000000,500.000000) scale(0.100000,-0.100000)"
fill="#000000" stroke="none">
<path d="M1585 3508 c-3 -7 -6 -51 -7 -98 l-3 -85 -134 -3 c-79 -1 -140 -7
-148 -14 -18 -15 -19 -1798 -1 -1816 17 -17 2399 -17 2416 0 18 18 17 1801 -1
1816 -8 7 -69 13 -148 14 l-134 3 -5 95 -5 95 -119 3 c-78 2 -123 -1 -132 -9
-10 -8 -14 -37 -14 -100 l0 -89 -60 0 -60 0 0 88 c0 55 -4 92 -12 100 -17 17
-232 16 -246 -1 -6 -7 -12 -51 -14 -97 l-3 -85 -57 -3 -58 -3 0 81 c0 122 2
120 -140 120 -142 0 -140 2 -140 -120 l0 -81 -57 3 -58 3 -3 85 c-2 46 -8 90
-14 97 -14 17 -229 18 -246 1 -8 -8 -12 -45 -12 -100 l0 -88 -60 0 -60 0 0 88
c0 55 -4 92 -12 100 -17 17 -247 17 -253 0z m185 -168 l0 -110 -60 0 -60 0 0
110 0 110 60 0 60 0 0 -110z m398 -2 l3 -108 -66 0 -65 0 0 103 c0 57 3 107 7
111 4 4 32 6 63 4 l55 -3 3 -107z m392 2 l0 -110 -60 0 -60 0 0 110 0 110 60
0 60 0 0 -110z m398 -2 l3 -108 -66 0 -65 0 0 103 c0 57 3 107 7 111 4 4 32 6
63 4 l55 -3 3 -107z m392 2 l0 -110 -60 0 -60 0 0 110 0 110 60 0 60 0 0 -110z
m-1770 -128 c0 -21 5 -43 12 -50 17 -17 229 -17 246 0 7 7 12 29 12 50 l0 38
60 0 60 0 0 -38 c0 -21 5 -43 12 -50 17 -17 229 -17 246 0 7 7 12 29 12 50 l0
38 59 0 58 0 6 -41 c3 -23 11 -46 19 -50 7 -5 60 -9 118 -9 58 0 111 4 118 9
8 4 16 27 19 50 l6 41 58 0 59 0 0 -38 c0 -21 5 -43 12 -50 17 -17 229 -17
246 0 7 7 12 29 12 50 l0 38 60 0 60 0 0 -38 c0 -21 5 -43 12 -50 8 -8 50 -12
123 -12 73 0 115 4 123 12 7 7 12 29 12 50 l0 38 110 0 110 0 0 -110 0 -110
-1140 0 -1140 0 0 110 0 110 110 0 110 0 0 -38z m2060 -957 l0 -705 -1140 0
-1140 0 0 705 0 705 1140 0 1140 0 0 -705z"/>
<path d="M2640 2445 l-285 -285 -141 140 c-77 77 -147 140 -155 140 -17 0
-139 -120 -139 -138 0 -16 416 -432 432 -432 17 0 728 711 728 728 0 23 -111
132 -134 132 -14 0 -113 -92 -306 -285z m322 178 c10 -9 18 -21 18 -27 0 -14
-611 -626 -625 -626 -6 0 -86 76 -178 168 l-168 168 24 22 23 22 139 -140 c77
-77 147 -140 155 -140 8 0 143 128 300 285 157 157 287 285 289 285 2 0 13 -7
23 -17z"/>
</g>
</svg>
