<?xml version="1.0" standalone="no"?>
<!DOCTYPE svg PUBLIC "-//W3C//DTD SVG 20010904//EN"
 "http://www.w3.org/TR/2001/REC-SVG-20010904/DTD/svg10.dtd">
<svg version="1.0" xmlns="http://www.w3.org/2000/svg"
 width="752.000000pt" height="752.000000pt" viewBox="0 0 752.000000 752.000000"
 preserveAspectRatio="xMidYMid meet">

<g transform="translate(0.000000,752.000000) scale(0.100000,-0.100000)"
fill="#000000" stroke="none">
<path d="M3740 5521 c-47 -25 -77 -80 -85 -160 -10 -99 -13 -105 -50 -117 -33
-10 -35 -9 -96 52 -111 112 -163 119 -281 37 -91 -62 -123 -100 -132 -154 -6
-38 -2 -54 38 -137 l46 -93 -22 -30 c-24 -33 -24 -33 -128 -16 -145 24 -197
-8 -244 -150 -53 -159 -32 -213 107 -280 l87 -42 0 -41 0 -41 -81 -39 c-99
-48 -114 -60 -135 -116 -16 -43 -16 -45 17 -150 52 -165 94 -195 242 -168 106
18 102 19 126 -15 l21 -29 -41 -87 c-36 -77 -41 -94 -37 -142 5 -63 25 -87
128 -158 116 -80 168 -73 279 39 62 62 64 63 97 53 37 -11 36 -9 55 -127 14
-90 28 -121 71 -152 30 -21 44 -23 150 -23 102 0 120 3 144 21 51 37 65 67 77
159 l12 88 36 13 36 12 64 -64 c75 -76 128 -101 182 -86 53 15 193 119 212
157 26 56 19 106 -27 199 l-41 83 22 32 c15 20 29 30 39 27 10 -3 52 -10 95
-17 142 -22 184 8 237 165 31 94 31 96 16 149 -19 66 -41 87 -144 137 l-82 39
0 40 0 40 83 41 c108 52 147 94 147 157 0 15 -14 71 -32 123 -34 104 -72 152
-127 163 -17 4 -72 -2 -121 -12 l-90 -18 -21 29 -22 30 41 86 c49 106 54 128
42 174 -12 43 -41 73 -129 133 -117 80 -164 73 -281 -40 -61 -58 -67 -62 -96
-54 -35 10 -37 17 -50 136 -8 72 -31 115 -76 143 -47 28 -226 29 -278 1z m239
-218 c20 -161 17 -157 124 -192 51 -17 98 -31 106 -31 7 0 53 38 100 85 48 47
91 85 95 85 14 0 136 -90 136 -101 0 -5 -22 -54 -50 -109 -27 -55 -50 -108
-50 -117 0 -28 109 -172 135 -179 13 -3 66 4 119 15 52 12 100 21 105 21 9 0
66 -158 60 -164 -2 -2 -47 -25 -99 -51 -136 -68 -130 -59 -130 -185 0 -125 -7
-115 127 -186 51 -27 95 -55 98 -63 8 -19 -37 -152 -53 -159 -8 -3 -55 3 -106
12 -143 25 -136 27 -205 -64 -34 -44 -61 -86 -61 -95 0 -8 23 -61 51 -116 28
-56 48 -106 46 -113 -3 -6 -31 -30 -64 -53 l-60 -42 -84 85 c-46 46 -92 87
-102 90 -25 8 -188 -44 -208 -67 -9 -10 -19 -42 -23 -71 -4 -29 -12 -81 -18
-116 l-10 -63 -91 3 -91 3 -16 117 c-10 65 -23 124 -29 132 -13 16 -160 66
-192 66 -11 0 -22 -8 -26 -17 -6 -20 -153 -173 -165 -173 -13 0 -138 93 -138
102 0 5 23 53 50 108 28 55 50 108 50 119 0 30 -101 169 -128 177 -13 4 -72
-1 -130 -10 -59 -9 -110 -16 -114 -16 -8 0 -61 157 -56 169 2 5 48 32 103 61
55 28 106 59 113 68 8 10 12 52 12 119 l0 103 -38 24 c-21 13 -67 38 -102 56
-95 48 -92 41 -63 126 14 42 30 77 37 80 6 2 61 -5 121 -15 70 -12 116 -16
127 -10 28 15 128 155 128 179 0 13 -22 65 -50 116 -27 51 -50 97 -50 102 0 6
30 31 66 57 l66 48 87 -86 c47 -46 93 -87 101 -89 22 -7 179 47 200 68 14 14
22 47 30 124 7 58 14 111 16 118 2 8 30 12 92 12 l89 0 12 -97z"/>
<path d="M4226 4775 c-8 -8 -117 -167 -242 -351 l-228 -337 -131 138 c-143
149 -158 157 -198 103 -16 -22 -19 -33 -11 -52 12 -32 309 -343 335 -351 11
-4 30 0 44 9 38 25 535 764 535 796 0 51 -68 80 -104 45z"/>
<path d="M3005 3134 c-101 -22 -222 -65 -447 -160 -109 -46 -243 -97 -297
-114 -137 -43 -144 -68 -50 -175 34 -38 131 -157 215 -262 85 -106 162 -197
172 -202 9 -4 80 -11 157 -14 165 -7 320 -37 625 -122 419 -116 424 -117 570
-122 256 -9 390 34 994 318 229 108 331 171 368 227 70 107 63 210 -21 293
-49 50 -96 69 -169 69 -63 0 -769 -252 -799 -285 -32 -36 -5 -95 43 -95 12 0
175 55 361 121 186 67 353 125 371 129 43 10 97 -5 117 -33 20 -28 19 -82 -1
-117 -23 -37 -83 -72 -324 -185 -549 -259 -672 -303 -876 -312 -128 -6 -199 6
-498 88 -432 119 -565 146 -753 156 -68 3 -123 9 -123 13 0 3 -71 94 -158 200
l-159 195 96 36 c53 20 160 64 238 97 273 117 398 148 554 139 79 -4 118 -13
244 -57 83 -29 227 -85 320 -125 336 -144 371 -167 369 -247 -2 -54 -36 -88
-95 -95 -46 -5 -269 44 -485 107 -99 29 -107 30 -130 15 -33 -21 -34 -78 -1
-99 26 -18 185 -62 397 -111 175 -41 246 -43 317 -7 130 67 164 243 69 358
-23 28 -65 54 -171 104 -251 120 -578 244 -725 276 -83 18 -225 17 -315 -2z"/>
</g>
</svg>
