<?xml version="1.0" standalone="no"?>
<!DOCTYPE svg PUBLIC "-//W3C//DTD SVG 20010904//EN"
 "http://www.w3.org/TR/2001/REC-SVG-20010904/DTD/svg10.dtd">
<svg version="1.0" xmlns="http://www.w3.org/2000/svg"
 width="752.000000pt" height="752.000000pt" viewBox="0 0 752.000000 752.000000"
 preserveAspectRatio="xMidYMid meet">

<g transform="translate(0.000000,752.000000) scale(0.100000,-0.100000)"
fill="#000000" stroke="none">
<path d="M3644 5491 c-66 -32 -125 -66 -133 -75 -8 -9 -29 -75 -47 -147 -59
-234 -139 -358 -249 -389 -65 -18 -120 -7 -249 50 -116 51 -245 90 -301 90
-18 0 -44 -9 -58 -20 -43 -34 -43 -73 -3 -232 19 -78 33 -144 31 -146 -2 -3
-137 0 -300 5 -163 6 -307 8 -320 5 -39 -7 -73 -49 -81 -98 -3 -25 -5 -131 -2
-238 3 -159 7 -197 20 -218 19 -28 54 -43 197 -83 298 -82 486 -262 563 -540
19 -71 22 -104 22 -295 0 -227 -6 -279 -60 -492 -13 -53 -24 -113 -24 -133 0
-127 192 -267 455 -334 121 -30 224 -48 499 -86 138 -19 287 -40 331 -46 99
-14 129 -5 151 46 11 28 13 51 5 110 -16 132 11 186 106 205 99 21 253 -8 451
-86 116 -45 170 -53 209 -31 13 7 60 46 105 88 46 41 120 106 166 143 45 38
89 81 97 97 28 53 22 72 -69 212 -134 205 -206 419 -206 606 1 155 63 305 174
416 99 100 94 90 131 232 18 70 60 205 94 299 94 264 89 282 -100 315 -389 70
-819 306 -1257 692 -118 104 -169 137 -210 137 -11 0 -73 -26 -138 -59z m257
-87 c434 -394 920 -671 1294 -739 146 -26 150 -28 148 -56 0 -14 -29 -103 -63
-199 -34 -96 -75 -227 -91 -290 l-30 -115 -74 -75 c-41 -41 -90 -101 -109
-134 -156 -260 -108 -626 129 -987 36 -55 65 -110 65 -122 0 -16 -26 -44 -92
-99 -51 -41 -128 -107 -170 -146 -42 -38 -86 -73 -97 -77 -13 -4 -57 9 -122
35 -168 68 -261 91 -385 97 -160 8 -228 -19 -266 -105 -17 -37 -20 -62 -17
-151 l4 -106 -25 -3 c-13 -2 -72 3 -130 12 -58 9 -215 32 -350 51 -283 40
-426 71 -536 115 -94 37 -192 99 -234 147 -37 41 -39 90 -10 194 10 39 29 128
41 197 29 167 31 455 5 577 -73 336 -295 554 -656 645 -140 35 -130 15 -130
264 0 177 3 216 15 226 12 10 80 10 326 1 274 -10 314 -10 334 3 13 9 26 24
29 34 4 10 -10 80 -29 156 -19 75 -35 150 -35 166 0 27 3 30 33 30 47 0 139
-26 221 -61 179 -78 187 -81 256 -81 90 0 154 29 219 96 27 29 60 75 74 102
29 58 83 214 92 270 17 100 19 102 129 155 55 27 113 49 127 49 19 0 50 -21
110 -76z"/>
<path d="M3817 4954 c-4 -4 -7 -29 -7 -55 0 -39 -4 -49 -25 -63 -14 -9 -25
-23 -25 -31 0 -8 -10 -20 -22 -26 -54 -29 -65 -91 -23 -130 21 -21 25 -33 25
-88 0 -162 -46 -579 -83 -740 -11 -48 -16 -56 -43 -63 -35 -9 -69 -43 -77 -77
-7 -30 16 -89 38 -97 19 -8 16 -23 -16 -108 -18 -50 -22 -54 -60 -60 -81 -13
-117 -98 -67 -161 l21 -27 -22 -46 c-35 -71 -102 -172 -165 -246 -42 -49 -55
-72 -51 -86 6 -19 16 -20 154 -20 107 0 151 3 158 13 5 6 18 34 28 61 23 63
84 130 150 164 42 22 63 27 130 27 68 0 89 -4 137 -28 81 -40 133 -106 172
-220 5 -16 19 -17 158 -15 147 3 153 4 156 24 2 14 -11 38 -35 66 -59 68 -109
139 -157 223 l-44 77 24 35 c13 20 24 48 24 64 0 42 -43 87 -93 96 -41 8 -42
10 -66 78 l-24 71 26 28 c38 41 37 97 -2 137 -17 16 -40 29 -54 29 -22 0 -25
7 -40 78 -41 193 -77 512 -77 685 0 91 2 101 25 129 38 45 33 70 -32 138 -53
54 -58 65 -63 112 -4 44 -9 54 -25 56 -12 2 -24 0 -28 -4z m103 -249 c0 -12
-16 -15 -80 -15 -64 0 -80 3 -80 15 0 12 16 15 80 15 64 0 80 -3 80 -15z m-46
-232 c8 -188 30 -380 61 -555 14 -76 25 -142 25 -148 0 -5 -18 -10 -39 -10
l-39 0 -7 90 c-6 70 -11 93 -24 100 -32 17 -44 -5 -52 -97 -4 -48 -8 -89 -8
-90 -1 -2 -19 -3 -42 -3 -35 0 -40 3 -34 18 24 62 85 535 85 661 0 32 3 86 6
120 7 58 8 61 34 61 l27 0 7 -147z m196 -792 c5 -9 5 -22 -1 -33 -9 -17 -26
-18 -231 -16 -201 3 -222 5 -232 21 -9 15 -7 21 9 33 29 22 441 17 455 -5z
m-330 -133 c0 -6 -7 -38 -16 -70 l-17 -58 -49 0 c-36 0 -48 3 -44 13 3 6 13
38 23 69 l18 58 43 0 c26 0 42 -5 42 -12z m135 -35 c30 -101 33 -93 -35 -93
-33 0 -60 3 -60 6 0 3 8 35 17 70 16 59 20 65 42 62 19 -2 27 -12 36 -45z
m167 -23 l25 -70 -48 0 -48 0 -17 58 c-9 31 -19 63 -21 70 -4 8 8 12 40 12
l44 0 25 -70z m155 -156 c3 -9 2 -24 -4 -33 -9 -14 -49 -16 -339 -19 -181 -1
-339 0 -350 3 -27 6 -38 33 -23 51 9 11 77 14 361 14 314 0 349 -2 355 -16z
m3 -206 c29 -51 74 -123 101 -159 27 -37 49 -69 49 -73 0 -3 -33 -6 -74 -6
l-75 0 -25 55 c-52 114 -159 195 -283 215 -159 26 -333 -69 -394 -214 l-23
-56 -78 0 c-89 0 -87 -6 -22 80 41 55 144 227 144 242 0 4 141 8 314 8 l313 0
53 -92z"/>
</g>
</svg>
