<?xml version="1.0" standalone="no"?>
<!DOCTYPE svg PUBLIC "-//W3C//DTD SVG 20010904//EN"
 "http://www.w3.org/TR/2001/REC-SVG-20010904/DTD/svg10.dtd">
<svg version="1.0" xmlns="http://www.w3.org/2000/svg"
 width="100.000000pt" height="100.000000pt" viewBox="0 0 100.000000 100.000000"
 preserveAspectRatio="xMidYMid meet">

<g transform="translate(0.000000,100.000000) scale(0.100000,-0.100000)"
fill="#000000" stroke="none">
<path d="M472 899 c-13 -16 -38 -37 -55 -45 -32 -17 -107 -22 -144 -10 -18 6
-23 4 -23 -11 0 -71 -63 -163 -125 -183 l-34 -11 25 -46 c31 -60 31 -116 0
-176 l-25 -46 45 -22 c55 -26 93 -80 103 -146 5 -34 11 -47 22 -45 85 21 145
6 199 -48 l38 -38 29 30 c15 16 41 37 57 45 31 16 106 21 142 9 19 -6 22 -2
28 35 12 77 60 139 123 160 l32 10 -25 46 c-31 60 -31 116 1 177 l25 46 -46
22 c-55 25 -93 78 -102 142 -8 51 -6 50 -61 41 -58 -10 -116 10 -162 56 -21
21 -40 39 -41 38 -2 0 -14 -13 -26 -30z m109 -65 c22 -12 56 -18 97 -19 58 0
62 -1 62 -23 0 -48 58 -130 112 -158 l27 -14 -19 -43 c-25 -53 -25 -110 0
-164 19 -42 19 -42 -2 -49 -45 -14 -98 -75 -114 -131 -16 -54 -17 -55 -47 -50
-55 9 -122 -11 -166 -49 -34 -30 -42 -33 -47 -20 -4 9 -27 29 -53 44 -37 21
-59 27 -108 27 -59 0 -63 1 -63 23 0 48 -58 130 -112 158 l-27 14 19 43 c25
53 25 110 0 164 -19 42 -19 42 2 49 44 14 98 75 113 129 l16 53 57 -1 c61 0
121 24 156 62 l19 21 22 -24 c12 -13 37 -32 56 -42z"/>
<path d="M403 764 c-56 -20 -126 -84 -153 -138 -11 -24 -27 -47 -35 -50 -17
-6 -20 -52 -5 -61 6 -3 10 -19 10 -34 0 -93 90 -212 184 -244 101 -34 202 -14
281 55 55 48 84 102 92 169 3 27 10 52 14 55 15 9 10 54 -6 60 -8 3 -24 26
-35 50 -28 56 -98 118 -157 138 -57 20 -134 19 -190 0z m202 -28 c28 -12 67
-42 88 -64 38 -43 48 -68 23 -59 -43 17 -108 18 -160 3 -52 -15 -60 -15 -112
0 -52 15 -117 14 -160 -3 -25 -9 -15 16 24 59 49 55 121 88 192 88 37 0 72 -8
105 -24z m-156 -142 c47 -16 54 -16 106 1 65 20 117 15 183 -16 38 -19 58 -49
31 -49 -5 0 -15 -14 -21 -30 -18 -54 -97 -76 -157 -45 -26 13 -61 67 -61 94 0
6 -13 11 -30 11 -16 0 -30 -5 -30 -11 0 -27 -35 -81 -61 -94 -60 -31 -139 -9
-157 45 -6 16 -16 30 -21 30 -20 0 -11 29 12 41 33 18 98 38 128 38 15 1 50
-6 78 -15z m80 -97 c11 -23 34 -50 50 -60 40 -23 108 -22 149 3 l34 21 -7 -23
c-23 -72 -75 -137 -140 -171 -53 -29 -173 -30 -225 -3 -68 36 -122 100 -145
175 l-7 24 35 -21 c51 -32 116 -30 158 5 17 15 38 42 45 60 8 18 18 33 23 33
5 0 19 -19 30 -43z"/>
<path d="M340 378 c0 -27 39 -75 73 -91 47 -23 133 -22 176 1 34 18 81 85 69
97 -3 4 -41 1 -82 -6 -59 -9 -93 -9 -146 0 -86 14 -90 14 -90 -1z m225 -21
c57 8 65 8 63 -6 -6 -32 -68 -61 -128 -61 -60 0 -122 29 -128 61 -2 14 6 14
63 6 40 -6 90 -6 130 0z"/>
</g>
</svg>
